<svg width="64" height="27" viewBox="0 0 64 27" fill="none" xmlns="http://www.w3.org/2000/svg">
<rect width="64" height="27" fill="white"/>
<path d="M16.992 18H16.02V10.38H16.992V18ZM20.9877 18.048H18.5637V17.268H21.2637C21.3357 17.268 21.3717 17.232 21.3717 17.16V15.492C21.3717 15.42 21.3357 15.384 21.2637 15.384H19.8837C19.3797 15.384 19.0157 15.292 18.7917 15.108C18.5757 14.924 18.4677 14.592 18.4677 14.112V13.344C18.4677 12.848 18.5797 12.508 18.8037 12.324C19.0357 12.132 19.3997 12.036 19.8957 12.036L22.0317 12.048V12.84L19.5477 12.828C19.4677 12.828 19.4277 12.868 19.4277 12.948V14.52C19.4277 14.592 19.4677 14.628 19.5477 14.628H20.9037C21.4157 14.628 21.7797 14.72 21.9957 14.904C22.2117 15.08 22.3197 15.412 22.3197 15.9V16.812C22.3197 17.276 22.2157 17.6 22.0077 17.784C21.7997 17.96 21.4597 18.048 20.9877 18.048ZM25.1392 18.084H24.3592C23.9032 18.084 23.5672 17.996 23.3512 17.82C23.1432 17.636 23.0392 17.316 23.0392 16.86V15.876C23.0392 15.388 23.1472 15.056 23.3632 14.88C23.5792 14.696 23.9392 14.604 24.4432 14.604H26.2312V15.3H24.0952C24.0152 15.3 23.9752 15.34 23.9752 15.42V17.196C23.9752 17.268 24.0152 17.304 24.0952 17.304H26.1112V13.02C26.1112 12.94 26.0752 12.9 26.0032 12.9L23.3632 12.912V12.12L25.6432 12.108C26.1472 12.108 26.5112 12.204 26.7352 12.396C26.9592 12.58 27.0712 12.924 27.0712 13.428V18H26.2312L26.1112 17.304L26.1832 16.98C26.1832 17.356 26.1032 17.636 25.9432 17.82C25.7912 17.996 25.5232 18.084 25.1392 18.084ZM31.0553 18.048L28.3913 18V9.9H29.3393V12.816L29.2793 13.14C29.2793 12.764 29.3553 12.488 29.5073 12.312C29.6673 12.128 29.9393 12.036 30.3233 12.036H31.1393C31.6113 12.036 31.9513 12.124 32.1593 12.3C32.3673 12.476 32.4713 12.796 32.4713 13.26V16.776C32.4713 17.256 32.3633 17.592 32.1473 17.784C31.9313 17.968 31.5673 18.056 31.0553 18.048ZM29.3393 12.924V17.364L29.2313 17.244L31.4153 17.268C31.4873 17.268 31.5233 17.228 31.5233 17.148V12.924C31.5233 12.852 31.4873 12.816 31.4153 12.816H29.4593C29.3793 12.816 29.3393 12.852 29.3393 12.924ZM37.5637 18.06H35.1637C34.6437 18.06 34.2637 17.964 34.0237 17.772C33.7837 17.572 33.6637 17.224 33.6637 16.728V13.332C33.6637 12.836 33.7677 12.496 33.9757 12.312C34.1837 12.128 34.5357 12.036 35.0317 12.036H36.2917C36.8037 12.036 37.1677 12.128 37.3837 12.312C37.5997 12.496 37.7077 12.836 37.7077 13.332V15.696H34.5037V14.988H36.7597V12.924C36.7597 12.852 36.7197 12.816 36.6397 12.816H34.7317C34.6597 12.816 34.6237 12.852 34.6237 12.924V17.16C34.6237 17.232 34.6597 17.268 34.7317 17.268H37.5637V18.06ZM39.985 18H39.037V9.9H39.985V18ZM43.2971 18.084H42.5171C42.0611 18.084 41.7251 17.996 41.5091 17.82C41.3011 17.636 41.1971 17.316 41.1971 16.86V15.876C41.1971 15.388 41.3051 15.056 41.5211 14.88C41.7371 14.696 42.0971 14.604 42.6011 14.604H44.3891V15.3H42.2531C42.1731 15.3 42.1331 15.34 42.1331 15.42V17.196C42.1331 17.268 42.1731 17.304 42.2531 17.304H44.2691V13.02C44.2691 12.94 44.2331 12.9 44.1611 12.9L41.5211 12.912V12.12L43.8011 12.108C44.3051 12.108 44.6691 12.204 44.8931 12.396C45.1171 12.58 45.2291 12.924 45.2291 13.428V18H44.3891L44.2691 17.304L44.3411 16.98C44.3411 17.356 44.2611 17.636 44.1011 17.82C43.9491 17.996 43.6811 18.084 43.2971 18.084Z" fill="black"/>
</svg>
